<svg xmlns="http://www.w3.org/2000/svg" viewBox="0 0 64 64">
  <rect width="64" height="64" rx="14" fill="#0B1C36"/>
  <g transform="translate(9,7) scale(0.34)">
    <path d="M54 4 L104 20 V80 C104 116 82 136 54 146 C26 136 4 116 4 80 V20 Z" fill="#13294B" stroke="#5E8FE6" stroke-width="8"/>
    <path d="M28 96 C24 96 22 93 22 90 C22 84 26 80 33 78 L44 75 L54 62 C59 55 66 51 75 51 L84 51 C90 51 95 54 99 60 L104 70 C110 72 114 76 114 82 C114 88 110 92 104 92 Z" fill="#C6CDD6" transform="translate(-8,-2) scale(0.92)"/>
    <circle cx="36" cy="92" r="7" fill="none" stroke="#DCE1E6" stroke-width="6"/>
    <circle cx="74" cy="92" r="7" fill="none" stroke="#DCE1E6" stroke-width="6"/>
  </g>
</svg>
